Coordinates
version=1
nRows=19
nColumns=36
inDegrees=yes

Units are S.I. units (second, meters, Newtons, ...)
If the header above contains a line with 'inDegrees', this indicates whether rotational values are in degrees (yes) or radians (no).

endheader
time	pelvis_tilt	pelvis_list	pelvis_rotation	pelvis_tx	pelvis_ty	pelvis_tz	hip_flexion_r	hip_adduction_r	hip_rotation_r	knee_angle_r	knee_angle_r_beta	ankle_angle_r	subtalar_angle_r	mtp_angle_r	hip_flexion_l	hip_adduction_l	hip_rotation_l	knee_angle_l	knee_angle_l_beta	ankle_angle_l	subtalar_angle_l	mtp_angle_l	lumbar_extension	lumbar_bending	lumbar_rotation	arm_flex_r	arm_add_r	arm_rot_r	elbow_flex_r	pro_sup_r	arm_flex_l	arm_add_l	arm_rot_l	elbow_flex_l	pro_sup_l
      2.40000000	    -29.16504762	    -15.77339406	      9.12286757	      1.14603223	      0.74897497	      0.07272633	     66.41179942	     13.95105886	    -10.39660958	     65.59472094	      1.14484385	     42.32946203	     -7.64981346	     -7.49999987	     88.68574536	    -11.14811313	     13.61010976	     41.13156800	      0.71788129	      0.00474273	    -26.57609773	     -7.49999987	     15.93902804	     21.14401125	     -0.98424071	     52.27669850	     -4.26733299	     67.76891061	    127.57947245	    100.01536215	     39.93510729	      8.81136346	     63.03456543	    115.14761228	    105.35584570
      2.41666670	    -28.46865161	    -15.45038742	      9.22230936	      1.14586624	      0.74730518	      0.07240464	     65.69062346	     14.03990939	    -10.06226125	     65.54872155	      1.14404101	     42.33377097	     -7.69056063	     -7.49999987	     87.84544856	    -11.27143043	     13.27271181	     41.22426658	      0.71949918	      0.12108046	    -26.53596866	     -7.49999987	     15.02642734	     20.75774353	     -0.93644457	     52.72444467	     -3.72544426	     67.73971377	    128.62237991	     98.84991638	     39.99303882	      9.01415831	     62.96810934	    115.21278066	    104.17678454
      2.43333330	    -28.58247126	    -15.59381484	      9.31932834	      1.14595084	      0.75255369	      0.07246074	     65.57645405	     14.18564793	     -9.93034050	     64.99098312	      1.13430664	     42.06317119	     -8.19260177	     -7.49999987	     87.64490227	    -11.33937667	     13.01911209	     40.79748883	      0.71205051	     -0.08677945	    -26.49461677	     -7.49999987	     15.41655297	     20.84090118	     -1.10534867	     52.69608260	     -4.19226902	     68.15586792	    128.74686453	     98.99537282	     39.13358716	      8.72497434	     63.13901076	    114.72339389	    104.29622340
      2.45000000	    -28.71540045	    -15.60461213	      9.29221189	      1.14576595	      0.74985541	      0.07270635	     65.69370781	     14.26603194	     -9.74985823	     64.81213846	      1.13118521	     41.26142725	     -9.25853559	     -7.49999987	     87.63908286	    -11.37171408	     12.95016853	     40.65883725	      0.70963058	     -0.55346681	    -26.80955952	     -7.49999987	     15.79621754	     20.70732963	     -1.09355169	     53.12564658	     -3.99473043	     68.11091808	    129.10411921	    101.91206350	     38.82550680	      9.24247064	     62.55701173	    114.31770371	    107.02419066
      2.46666670	    -28.34541361	    -15.36231570	      9.53773153	      1.14606096	      0.75350152	      0.07221305	     65.03049905	     14.12723954	     -9.51171235	     64.40549161	      1.12408788	     40.97352487	     -9.59814423	     -7.49999987	     86.89193427	    -11.22484787	     12.63793108	     40.40649672	      0.70522641	     -0.48700654	    -26.99048486	     -7.49999987	     15.67719986	     20.32306135	     -2.08475283	     52.37890874	     -3.41672591	     68.81292266	    129.97454237	    102.93326061	     38.04044813	      9.32689015	     63.01468075	    114.70369791	    107.95637638
      2.48333330	    -27.41790181	    -14.95748314	      9.93598744	      1.14586519	      0.75546616	      0.07165127	     63.82986301	     13.84054171	     -9.36125105	     64.14886560	      1.11960892	     40.98801771	     -9.40998664	     -7.49999987	     85.59243095	    -11.01976453	     12.41465541	     40.14049572	      0.70058381	     -0.66705764	    -27.51155106	     -7.49999987	     14.80154474	     19.82005653	     -2.14443124	     52.39661820	     -3.41386523	     68.56540234	    130.57656215	    100.95687191	     37.55387727	      9.83067400	     63.62937439	    114.27755310	    106.25051909
      2.50000000	    -27.56379332	    -15.10316096	      9.84675195	      1.14615241	      0.75515568	      0.07205077	     63.86900851	     14.06558623	     -9.29136929	     63.82111728	      1.11388863	     40.54361527	     -9.83251684	     -7.49999987	     85.93039754	    -11.19679077	     12.37060979	     40.30203723	      0.70340324	      0.32058682	    -26.63661632	     -7.49999987	     15.52174774	     19.76919801	     -2.83943696	     52.31644784	     -3.23134501	     68.46289177	    130.93834779	    102.48977067	     37.33763783	      9.88508633	     64.04296439	    114.82083579	    107.89965287
      2.51666670	    -26.75287701	    -14.54252991	     10.07830392	      1.14625091	      0.76007748	      0.07230431	     62.58366310	     13.85741188	     -8.89931278	     63.33645183	      1.10542962	     40.30454810	     -9.91380764	     -7.49999987	     84.46871315	    -11.13067802	     11.90173038	     39.68182960	      0.69257858	      0.04168328	    -26.81425393	     -7.49999987	     14.80748535	     19.13625293	     -3.34670058	     52.06348219	     -3.22456018	     68.60847422	    131.07006537	    102.28409366	     37.35539575	     10.09127810	     64.30603570	    115.54675213	    107.63576467
      2.53333330	    -26.20967936	    -14.58057728	     10.13290325	      1.14180655	      0.76266443	      0.07535281	     62.02996786	     14.09970512	     -8.89483963	     62.97728186	      1.09916092	     39.75027633	    -10.10809284	     -7.49999987	     84.12275520	    -11.25300221	     12.04642639	     39.55517765	      0.69036809	     -0.10518092	    -26.56015971	     -7.49999987	     14.19292527	     19.01883512	     -3.40805886	     52.45141867	     -3.53887349	     68.12947313	    130.49111905	    102.37368179	     37.88952256	     10.29923642	     64.55867699	    115.94957195	    107.75780530
      2.55000000	    -24.52063336	    -13.81859565	     10.41277914	      1.14234310	      0.77406723	      0.07484157	     59.70775161	     14.06510245	     -8.24101786	     62.08715804	      1.08362533	     39.10182710	    -10.51276589	     -7.49999987	     81.53788045	    -11.32485414	     11.45435495	     38.70302319	      0.67549519	     -0.56457899	    -26.70987430	     -7.49999987	     11.63999477	     18.21185432	     -3.30043099	     52.84290964	     -3.79554066	     68.89592472	    130.19759772	    102.35785568	     38.57465421	      9.95756547	     64.52666127	    115.99233568	    107.70479743
      2.56666670	    -22.56707222	    -13.24840043	     10.64677556	      1.14304796	      0.78047484	      0.07419037	     57.11804732	     14.15524923	     -7.77634161	     61.06644654	      1.06581055	     38.51162076	    -10.46329218	     -7.49999987	     78.82542826	    -11.64854211	     10.63694793	     37.67444397	      0.65754309	     -1.24139914	    -26.73295943	     -7.49999987	      9.30537722	     17.53073423	     -3.16373704	     52.48831546	     -4.41286085	     69.17704636	    130.24187808	    101.24588050	     39.22155935	      9.92541439	     64.21233821	    115.56729620	    106.99841952
      2.58333330	    -18.27111374	    -11.42913513	     11.56718755	      1.14314742	      0.79299281	      0.07382404	     51.52991007	     13.58395270	     -6.68807334	     59.75845554	      1.04298181	     37.88256225	    -10.46883177	     -7.49999987	     72.73069495	    -11.48504330	      9.17601818	     35.91435264	      0.62682370	     -1.98339597	    -27.37126441	     -7.49999987	      3.50549478	     15.99565956	     -2.88036359	     53.03969106	     -4.31373118	     69.27422820	    129.29748810	    102.13952899	     40.41492586	      9.48313238	     65.15508345	    115.85260853	    107.26764757
      2.60000000	    -12.80602314	     -8.61100919	     12.45164700	      1.14340496	      0.81208400	      0.07383455	     44.08738648	     12.42588817	     -5.25898203	     57.97095671	      1.01178407	     37.53651187	    -10.17636095	     -7.49999987	     64.30128724	    -10.97684121	      6.94197460	     33.11254911	      0.57792301	     -3.07918923	    -27.82271220	     -7.49999987	     -4.47438872	     13.56110623	     -2.42487237	     54.36921356	     -4.22037032	     68.93008523	    128.91887793	    104.51013824	     42.52038502	      8.89522987	     67.53719331	    116.80761522	    108.15595068
      2.61666670	     19.88245301	      8.28285833	      8.15993971	      1.13434163	      0.88754443	      0.08752875	      1.12606051	      3.60188714	      2.03233315	     49.94131644	      0.87164040	     36.75598832	     -7.28492279	     -7.49999987	     12.95355704	     -4.78243834	     -5.68540063	     12.14954443	      0.21204955	     -8.06410046	    -24.93412034	     -7.49999987	    -47.86358434	     -0.78447648	     -1.74945088	     63.53804632	     -2.60077922	     63.99716658	    128.82663505	    101.90945491	     54.78128153	      7.64974814	     67.29249785	    118.76389125	    105.30574250
      2.63333330	     19.76346005	      8.09088354	      8.13805469	      1.13454664	      0.88683445	      0.08796979	      1.01606073	      3.83637129	      2.23270012	     49.45011005	      0.86306724	     36.33244992	     -7.33330661	     -7.49999987	     13.28093112	     -4.98180246	     -5.72031841	     12.81784608	      0.22371362	     -7.16825522	    -24.81063452	     -7.49999987	    -46.68799377	     -0.98754818	     -2.25347631	     63.02769814	     -2.19595768	     62.79060067	    128.49024778	    102.18273785	     54.93882261	      7.00073566	     66.44243187	    118.12619170	    104.38046565
      2.65000000	     19.55351720	      7.87506738	      8.22530356	      1.13464288	      0.88819596	      0.08726852	      1.04063262	      4.11872413	      2.29393973	     48.98745887	      0.85499245	     36.10543409	     -7.12324665	     -7.49999987	     13.93547789	     -5.14200118	     -5.39382650	     13.58484117	      0.23710021	     -6.68765600	    -25.17201275	     -7.49999987	    -45.69175111	     -1.04173291	     -1.88981575	     63.39362276	     -2.47721141	     61.78878127	    128.19834421	    100.48046277	     54.49336996	      6.81106669	     65.75191724	    117.74378895	    102.36921018
      2.66666670	     19.71110292	      7.91289141	      8.18836649	      1.14034493	      0.89202091	      0.08987055	      0.33146792	      4.27801625	      2.51120988	     48.18244301	      0.84094227	     35.89571318	     -6.79423565	     -7.49999987	     13.82330850	     -5.14374867	     -5.19107617	     13.84396684	      0.24162280	     -5.91347242	    -25.15357824	     -7.49999987	    -45.06109233	     -1.41409591	     -1.21051216	     62.93448699	     -2.89735378	     61.05400972	    127.80779217	    100.56419518	     53.01056573	      6.30415953	     64.33099028	    117.33719052	    102.39190586
      2.68333330	     19.63682296	      7.92111744	      8.17583123	      1.13576161	      0.89550964	      0.09253647	     -0.10378921	      4.41642590	      2.74538083	     47.28807853	      0.82533267	     35.45907105	     -6.87787488	     -7.49999987	     14.06841313	     -5.12715704	     -5.02939348	     14.27002000	      0.24905883	     -5.11132484	    -24.93264952	     -7.49999987	    -44.53487975	     -1.82400845	     -0.84556610	     62.75368418	     -3.31878040	     60.79392284	    127.56391273	    100.59759615	     52.13221317	      5.50900146	     62.06955863	    116.06553809	    102.24157091
      2.70000000	     18.29026173	      7.52722415	      8.70397822	      1.13678506	      0.89334609	      0.09171694	      1.17367937	      4.79262982	      2.62034457	     46.97553387	      0.81987773	     35.12946240	     -7.05678051	     -7.49999987	     16.41420877	     -5.39981928	     -4.51743264	     16.01766207	      0.27956094	     -4.08528397	    -24.87055141	     -7.49999987	    -42.42500661	     -1.73544177	     -0.83646590	     63.18273767	     -3.05931906	     59.97932575	    126.90411939	    101.06926818	     51.55565924	      5.30391197	     60.45811443	    116.86031070	    101.28954405
